<svg width="820" height="340" viewBox="0 0 820 340" xmlns="http://www.w3.org/2000/svg">
  <style>
    :root {
      --bg: #0d1117;
      --border: #30363d;
      --empty: #161b22;
      --l1: #0e4429;
      --l2: #006d32;
      --l3: #26a641;
      --l4: #39d353;
      --laser: #f1e05a;
    }
    text { font-family: -apple-system, BlinkMacSystemFont, "Segoe UI", Helvetica, Arial, sans-serif; fill: #8b949e; }
    .header { font-size: 14px; font-weight: 600; fill: #c9d1d9; }
    .label { font-size: 10px; }
  </style>

  <rect width="820" height="340" rx="8" fill="var(--bg)" stroke="var(--border)"/>

  <g transform="translate(30, 35)">
    <text class="header">CONTRIBUTION DEFENDER v4.0</text>
    <text y="22" font-size="12" font-family="monospace">
      STREAK: <tspan fill="var(--l4)">ACTIVE</tspan>
      <tspan dx="20">NODE_STATUS: </tspan><tspan fill="var(--l4)">STABLE</tspan>
    </text>
  </g>

  <g transform="translate(60, 100)">
    <text x="0" y="-15" class="label">Week 1</text>
    <text x="60" y="-15" class="label">Week 5</text>
    <text x="120" y="-15" class="label">Week 9</text>

    <text x="-35" y="10" class="label">Mon</text>
    <text x="-35" y="38" class="label">Wed</text>
    <text x="-35" y="66" class="label">Fri</text>

    <g id="grid">
      <g transform="translate(0,0)">
        <rect width="11" height="11" rx="2" fill="var(--l1)"/>
        <rect y="14" width="11" height="11" rx="2" fill="var(--empty)"><animate attributeName="fill" to="var(--l4)" dur="0.1s" begin="0.5s;10.5s" fill="freeze"/></rect>
        <rect y="28" width="11" height="11" rx="2" fill="var(--l2)"/>
        <rect y="42" width="11" height="11" rx="2" fill="var(--empty)"><animate attributeName="fill" to="var(--l3)" dur="0.1s" begin="0.5s;10.5s" fill="freeze"/></rect>
        <rect y="56" width="11" height="11" rx="2" fill="var(--l1)"/>
        <rect y="70" width="11" height="11" rx="2" fill="var(--empty)"><animate attributeName="fill" to="var(--l2)" dur="0.1s" begin="0.5s;10.5s" fill="freeze"/></rect>
        <rect y="84" width="11" height="11" rx="2" fill="var(--l3)"/>
      </g>

      <g transform="translate(15,0)">
        <rect width="11" height="11" rx="2" fill="var(--empty)"><animate attributeName="fill" to="var(--l2)" dur="0.1s" begin="1s;11s" fill="freeze"/></rect>
        <rect y="14" width="11" height="11" rx="2" fill="var(--l1)"/>
        <rect y="28" width="11" height="11" rx="2" fill="var(--empty)"><animate attributeName="fill" to="var(--l4)" dur="0.1s" begin="1s;11s" fill="freeze"/></rect>
        <rect y="42" width="11" height="11" rx="2" fill="var(--l2)"/>
        <rect y="56" width="11" height="11" rx="2" fill="var(--empty)"><animate attributeName="fill" to="var(--l3)" dur="0.1s" begin="1s;11s" fill="freeze"/></rect>
        <rect y="70" width="11" height="11" rx="2" fill="var(--l1)"/>
        <rect y="84" width="11" height="11" rx="2" fill="var(--empty)"><animate attributeName="fill" to="var(--l2)" dur="0.1s" begin="1s;11s" fill="freeze"/></rect>
      </g>

      <g transform="translate(30,0)">
        <rect width="11" height="11" rx="2" fill="var(--l3)"/>
        <rect y="14" width="11" height="11" rx="2" fill="var(--empty)"><animate attributeName="fill" to="var(--l2)" dur="0.1s" begin="1.5s;11.5s" fill="freeze"/></rect>
        <rect y="28" width="11" height="11" rx="2" fill="var(--l1)"/>
        <rect y="42" width="11" height="11" rx="2" fill="var(--empty)"><animate attributeName="fill" to="var(--l4)" dur="0.1s" begin="1.5s;11.5s" fill="freeze"/></rect>
        <rect y="56" width="11" height="11" rx="2" fill="var(--l2)"/>
        <rect y="70" width="11" height="11" rx="2" fill="var(--empty)"><animate attributeName="fill" to="var(--l3)" dur="0.1s" begin="1.5s;11.5s" fill="freeze"/></rect>
        <rect y="84" width="11" height="11" rx="2" fill="var(--l1)"/>
      </g>

      <g transform="translate(45,0)"><rect width="11" height="11" rx="2" fill="var(--empty)" y="0"/><rect y="14" width="11" height="11" rx="2" fill="var(--l1)"/><rect y="28" width="11" height="11" rx="2" fill="var(--empty)"/><rect y="42" width="11" height="11" rx="2" fill="var(--l2)"/><rect y="56" width="11" height="11" rx="2" fill="var(--empty)"/><rect y="70" width="11" height="11" rx="2" fill="var(--l1)"/><rect y="84" width="11" height="11" rx="2" fill="var(--empty)"/></g>
      <g transform="translate(60,0)"><rect width="11" height="11" rx="2" fill="var(--l2)" y="0"/><rect y="14" width="11" height="11" rx="2" fill="var(--empty)"/><rect y="28" width="11" height="11" rx="2" fill="var(--l1)"/><rect y="42" width="11" height="11" rx="2" fill="var(--empty)"/><rect y="56" width="11" height="11" rx="2" fill="var(--l2)"/><rect y="70" width="11" height="11" rx="2" fill="var(--empty)"/><rect y="84" width="11" height="11" rx="2" fill="var(--l1)"/></g>
      <g transform="translate(75,0)"><rect width="11" height="11" rx="2" fill="var(--empty)" y="0"/><rect y="14" width="11" height="11" rx="2" fill="var(--l1)"/><rect y="28" width="11" height="11" rx="2" fill="var(--empty)"/><rect y="42" width="11" height="11" rx="2" fill="var(--l2)"/><rect y="56" width="11" height="11" rx="2" fill="var(--empty)"/><rect y="70" width="11" height="11" rx="2" fill="var(--l1)"/><rect y="84" width="11" height="11" rx="2" fill="var(--empty)"/></g>
      <g transform="translate(90,0)"><rect width="11" height="11" rx="2" fill="var(--l1)" y="0"/><rect y="14" width="11" height="11" rx="2" fill="var(--empty)"/><rect y="28" width="11" height="11" rx="2" fill="var(--l2)"/><rect y="42" width="11" height="11" rx="2" fill="var(--empty)"/><rect y="56" width="11" height="11" rx="2" fill="var(--l1)"/><rect y="70" width="11" height="11" rx="2" fill="var(--empty)"/><rect y="84" width="11" height="11" rx="2" fill="var(--l2)"/></g>
      <g transform="translate(105,0)"><rect width="11" height="11" rx="2" fill="var(--empty)" y="0"/><rect y="14" width="11" height="11" rx="2" fill="var(--l1)"/><rect y="28" width="11" height="11" rx="2" fill="var(--empty)"/><rect y="42" width="11" height="11" rx="2" fill="var(--l2)"/><rect y="56" width="11" height="11" rx="2" fill="var(--empty)"/><rect y="70" width="11" height="11" rx="2" fill="var(--l1)"/><rect y="84" width="11" height="11" rx="2" fill="var(--empty)"/></g>
      <g transform="translate(120,0)"><rect width="11" height="11" rx="2" fill="var(--l2)" y="0"/><rect y="14" width="11" height="11" rx="2" fill="var(--empty)"/><rect y="28" width="11" height="11" rx="2" fill="var(--l1)"/><rect y="42" width="11" height="11" rx="2" fill="var(--empty)"/><rect y="56" width="11" height="11" rx="2" fill="var(--l2)"/><rect y="70" width="11" height="11" rx="2" fill="var(--empty)"/><rect y="84" width="11" height="11" rx="2" fill="var(--l1)"/></g>
      <g transform="translate(135,0)"><rect width="11" height="11" rx="2" fill="var(--empty)" y="0"/><rect y="14" width="11" height="11" rx="2" fill="var(--l1)"/><rect y="28" width="11" height="11" rx="2" fill="var(--empty)"/><rect y="42" width="11" height="11" rx="2" fill="var(--l2)"/><rect y="56" width="11" height="11" rx="2" fill="var(--empty)"/><rect y="70" width="11" height="11" rx="2" fill="var(--l1)"/><rect y="84" width="11" height="11" rx="2" fill="var(--empty)"/></g>
      <g transform="translate(150,0)"><rect width="11" height="11" rx="2" fill="var(--l1)" y="0"/><rect y="14" width="11" height="11" rx="2" fill="var(--empty)"/><rect y="28" width="11" height="11" rx="2" fill="var(--l2)"/><rect y="42" width="11" height="11" rx="2" fill="var(--empty)"/><rect y="56" width="11" height="11" rx="2" fill="var(--l1)"/><rect y="70" width="11" height="11" rx="2" fill="var(--empty)"/><rect y="84" width="11" height="11" rx="2" fill="var(--l2)"/></g>
      <g transform="translate(165,0)"><rect width="11" height="11" rx="2" fill="var(--empty)" y="0"/><rect y="14" width="11" height="11" rx="2" fill="var(--l1)"/><rect y="28" width="11" height="11" rx="2" fill="var(--empty)"/><rect y="42" width="11" height="11" rx="2" fill="var(--l2)"/><rect y="56" width="11" height="11" rx="2" fill="var(--empty)"/><rect y="70" width="11" height="11" rx="2" fill="var(--l1)"/><rect y="84" width="11" height="11" rx="2" fill="var(--empty)"/></g>
    </g>
  </g>

  <g>
    <g transform="translate(65, 260)">
      <path d="M-10,0 L10,0 L0,-18 Z" fill="var(--l3)" />
      <path d="M-12,5 L12,5 L0,-2 Z" fill="var(--l4)" opacity="0.6">
        <animate attributeName="opacity" values="0.2;0.8;0.2" dur="0.2s" repeatCount="indefinite" />
      </path>
      <animateTransform attributeName="transform" type="translate"
        values="65,260; 230,260; 65,260" dur="10s" repeatCount="indefinite" />
    </g>

    <rect width="2" height="25" fill="var(--laser)" opacity="0">
      <animate attributeName="opacity" values="0;1;0" dur="0.5s" repeatCount="indefinite" />
      <animate attributeName="x" values="65; 230; 65" dur="10s" repeatCount="indefinite" />
      <animate attributeName="y" values="240; 110" dur="0.5s" repeatCount="indefinite" />
    </rect>
  </g>

  <g transform="translate(640, 310)">
    <text x="-45" y="10" class="label">Less</text>
    <rect x="-15" y="0" width="11" height="11" rx="2" fill="var(--empty)"/>
    <rect x="0" y="0" width="11" height="11" rx="2" fill="var(--l1)"/>
    <rect x="15" y="0" width="11" height="11" rx="2" fill="var(--l2)"/>
    <rect x="30" y="0" width="11" height="11" rx="2" fill="var(--l3)"/>
    <rect x="45" y="0" width="11" height="11" rx="2" fill="var(--l4)"/>
    <text x="60" y="10" class="label">More</text>
  </g>
</svg>
